Coordinates
version=1
nRows=21
nColumns=12
inDegrees=yes

Units are S.I. units (second, meters, Newtons, ...)
Angles are in degrees

endheader
time	SC_y	SC_z	SC_x	AC_y	AC_z	AC_x	GH_y	GH_z	GH_yy	EL_x	PS_y
       0.0              -37.72          19.94          26.89           50.9         -9.644          3.887         -15.22          27.59           89.5          79.91          70.83
   0.04827              -37.72          19.94           26.9           50.9         -9.643          3.884         -15.23           27.6          89.47          79.92          70.83
   0.09654              -37.72          19.94          26.91           50.9         -9.643          3.882         -15.23          27.61          89.43          79.93          70.82
    0.1448              -37.72          19.94          26.92           50.9         -9.642           3.88         -15.23          27.62          89.39          79.94          70.82
    0.1931              -37.72          19.94          26.93           50.9         -9.641          3.877         -15.23          27.63          89.35          79.95          70.81
    0.2414              -37.73          19.94          26.94          50.91         -9.641          3.874         -15.24          27.64           89.3          79.96           70.8
    0.2896              -37.73          19.94          26.95          50.91          -9.64          3.871         -15.24          27.65          89.25          79.97           70.8
    0.3379              -37.73          19.93          26.96          50.91          -9.64          3.868         -15.24          27.67           89.2          79.98          70.79
    0.3862              -37.73          19.93          26.97          50.91         -9.639          3.864         -15.25          27.68          89.15          79.99          70.78
    0.4345              -37.73          19.93          26.99          50.92         -9.638           3.86         -15.25           27.7          89.09           80.0          70.77
    0.4827              -37.74          19.93           27.0          50.92         -9.637          3.856         -15.26          27.71          89.03          80.02          70.76
     0.531              -37.74          19.93          27.02          50.93         -9.636          3.852         -15.26          27.73          88.96          80.03          70.75
    0.5793              -37.74          19.92          27.04          50.93         -9.635          3.847         -15.27          27.75          88.89          80.05          70.74
    0.6275              -37.75          19.92          27.05          50.93         -9.634          3.842         -15.27          27.77          88.81          80.07          70.73
    0.6758              -37.75          19.92          27.07          50.94         -9.633          3.836         -15.28          27.79          88.72          80.09          70.72
    0.7241              -37.76          19.91           27.1          50.94         -9.632           3.83         -15.28          27.81          88.63          80.11           70.7
    0.7724              -37.76          19.91          27.12          50.95         -9.631          3.824         -15.29          27.84          88.53          80.13          70.69
    0.8206              -37.77          19.91          27.15          50.95         -9.629          3.817          -15.3          27.87          88.42          80.16          70.67
    0.8689              -37.77           19.9          27.17          50.96         -9.628          3.809         -15.31           27.9           88.3          80.19          70.65
    0.9172              -37.78           19.9           27.2          50.97         -9.626          3.801         -15.32          27.93          88.16          80.22          70.63
    0.9654              -37.78          19.89          27.24          50.98         -9.624          3.791         -15.33          27.97          88.02          80.25          70.61
